<svg width="25" height="25" viewBox="0 0 25 25" fill="none" xmlns="http://www.w3.org/2000/svg">
<path fill-rule="evenodd" clip-rule="evenodd" d="M2.51465 8.18164C2.51465 4.86793 5.20094 2.18164 8.51465 2.18164H16.5146C19.8284 2.18164 22.5146 4.86793 22.5146 8.18164V16.1816C22.5146 19.4953 19.8284 22.1816 16.5146 22.1816H8.51465C5.20094 22.1816 2.51465 19.4953 2.51465 16.1816V8.18164ZM17.9133 7.3693C17.7099 7.16962 17.4517 7.05859 17.1611 7.05859C16.8557 7.05859 16.5931 7.18658 16.3937 7.40026C16.194 7.60357 16.083 7.86179 16.083 8.15234V16.043C16.083 16.3372 16.1969 16.5983 16.4013 16.8028C16.6058 17.0072 16.8669 17.1211 17.1611 17.1211C17.4562 17.1211 17.7253 17.0141 17.9366 16.8028C18.141 16.5983 18.2549 16.3372 18.2549 16.043V8.15234C18.2549 7.84644 18.1344 7.57579 17.9133 7.3693ZM15.5361 16.1211C15.5361 15.9443 15.5037 15.7718 15.4379 15.6073L12.1844 7.89546L12.1811 7.88802C12.076 7.64977 11.9238 7.43628 11.708 7.28339C11.4883 7.12782 11.2359 7.05859 10.9736 7.05859H10.8486C10.5847 7.05859 10.3287 7.12603 10.1065 7.28339C9.88772 7.43836 9.73714 7.65544 9.63717 7.89734L9.63629 7.89947L6.38788 15.5986L6.38439 15.6073C6.31859 15.7718 6.28613 15.9443 6.28613 16.1211C6.28613 16.3807 6.40314 16.5988 6.53978 16.7658L6.54803 16.7759L6.55679 16.7856C6.78955 17.0416 7.1112 17.1211 7.41113 17.1211C7.61767 17.1211 7.82166 17.0653 7.99983 16.9373C8.17378 16.8122 8.29141 16.6414 8.36977 16.4611L9.0592 14.7773H12.7499L13.4497 16.4543L13.4526 16.4611C13.5294 16.6377 13.6434 16.8074 13.8124 16.9328C13.987 17.0623 14.1888 17.1211 14.3955 17.1211C14.6879 17.1211 15.0268 17.0501 15.2577 16.7768C15.4027 16.6148 15.5361 16.3934 15.5361 16.1211ZM9.92611 12.7148L10.9111 10.3455L11.8962 12.7148H9.92611Z" fill="#2B33E6"/>
<path fill-rule="evenodd" clip-rule="evenodd" d="M2.51465 8.18164C2.51465 4.86793 5.20094 2.18164 8.51465 2.18164H16.5146C19.8284 2.18164 22.5146 4.86793 22.5146 8.18164V16.1816C22.5146 19.4953 19.8284 22.1816 16.5146 22.1816H8.51465C5.20094 22.1816 2.51465 19.4953 2.51465 16.1816V8.18164ZM17.9133 7.3693C17.7099 7.16962 17.4517 7.05859 17.1611 7.05859C16.8557 7.05859 16.5931 7.18658 16.3937 7.40026C16.194 7.60357 16.083 7.86179 16.083 8.15234V16.043C16.083 16.3372 16.1969 16.5983 16.4013 16.8028C16.6058 17.0072 16.8669 17.1211 17.1611 17.1211C17.4562 17.1211 17.7253 17.0141 17.9366 16.8028C18.141 16.5983 18.2549 16.3372 18.2549 16.043V8.15234C18.2549 7.84644 18.1344 7.57579 17.9133 7.3693ZM15.5361 16.1211C15.5361 15.9443 15.5037 15.7718 15.4379 15.6073L12.1844 7.89546L12.1811 7.88802C12.076 7.64977 11.9238 7.43628 11.708 7.28339C11.4883 7.12782 11.2359 7.05859 10.9736 7.05859H10.8486C10.5847 7.05859 10.3287 7.12603 10.1065 7.28339C9.88772 7.43836 9.73714 7.65544 9.63717 7.89734L9.63629 7.89947L6.38788 15.5986L6.38439 15.6073C6.31859 15.7718 6.28613 15.9443 6.28613 16.1211C6.28613 16.3807 6.40314 16.5988 6.53978 16.7658L6.54803 16.7759L6.55679 16.7856C6.78955 17.0416 7.1112 17.1211 7.41113 17.1211C7.61767 17.1211 7.82166 17.0653 7.99983 16.9373C8.17378 16.8122 8.29141 16.6414 8.36977 16.4611L9.0592 14.7773H12.7499L13.4497 16.4543L13.4526 16.4611C13.5294 16.6377 13.6434 16.8074 13.8124 16.9328C13.987 17.0623 14.1888 17.1211 14.3955 17.1211C14.6879 17.1211 15.0268 17.0501 15.2577 16.7768C15.4027 16.6148 15.5361 16.3934 15.5361 16.1211ZM9.92611 12.7148L10.9111 10.3455L11.8962 12.7148H9.92611Z" fill="url(#paint0_linear_2789_37812)"/>
<defs>
<linearGradient id="paint0_linear_2789_37812" x1="12.5146" y1="24.7711" x2="12.329" y2="2.60365" gradientUnits="userSpaceOnUse">
<stop stop-color="#4850FF"/>
<stop offset="1" stop-color="#050C9E"/>
</linearGradient>
</defs>
</svg>
