<svg width="24" height="24" viewBox="0 0 24 24" fill="none" xmlns="http://www.w3.org/2000/svg">
<g filter="url(#filter0_d_11925_4911)">
<path d="M19.8934 4.82627C19.7582 4.50063 19.4994 4.24185 19.1737 4.10662C19.0135 4.03833 18.8415 4.00211 18.6673 4H5.34042C4.98697 4 4.64799 4.14041 4.39806 4.39034C4.14814 4.64026 4.00773 4.97924 4.00773 5.33269C4.00773 5.68614 4.14814 6.02512 4.39806 6.27504C4.64799 6.52497 4.98697 6.66538 5.34042 6.66538H15.4555L4.39421 17.7134C4.2693 17.8373 4.17015 17.9847 4.10249 18.1471C4.03483 18.3095 4 18.4837 4 18.6596C4 18.8355 4.03483 19.0097 4.10249 19.1721C4.17015 19.3345 4.2693 19.4819 4.39421 19.6058C4.5181 19.7307 4.66549 19.8298 4.8279 19.8975C4.9903 19.9652 5.16449 20 5.34042 20C5.51635 20 5.69054 19.9652 5.85294 19.8975C6.01534 19.8298 6.16274 19.7307 6.28663 19.6058L17.3346 8.54447V18.6596C17.3346 19.013 17.475 19.352 17.725 19.6019C17.9749 19.8519 18.3139 19.9923 18.6673 19.9923C19.0208 19.9923 19.3597 19.8519 19.6097 19.6019C19.8596 19.352 20 19.013 20 18.6596V5.33269C19.9979 5.15854 19.9617 4.98649 19.8934 4.82627Z" fill="black"/>
<path d="M19.8934 4.82627C19.7582 4.50063 19.4994 4.24185 19.1737 4.10662C19.0135 4.03833 18.8415 4.00211 18.6673 4H5.34042C4.98697 4 4.64799 4.14041 4.39806 4.39034C4.14814 4.64026 4.00773 4.97924 4.00773 5.33269C4.00773 5.68614 4.14814 6.02512 4.39806 6.27504C4.64799 6.52497 4.98697 6.66538 5.34042 6.66538H15.4555L4.39421 17.7134C4.2693 17.8373 4.17015 17.9847 4.10249 18.1471C4.03483 18.3095 4 18.4837 4 18.6596C4 18.8355 4.03483 19.0097 4.10249 19.1721C4.17015 19.3345 4.2693 19.4819 4.39421 19.6058C4.5181 19.7307 4.66549 19.8298 4.8279 19.8975C4.9903 19.9652 5.16449 20 5.34042 20C5.51635 20 5.69054 19.9652 5.85294 19.8975C6.01534 19.8298 6.16274 19.7307 6.28663 19.6058L17.3346 8.54447V18.6596C17.3346 19.013 17.475 19.352 17.725 19.6019C17.9749 19.8519 18.3139 19.9923 18.6673 19.9923C19.0208 19.9923 19.3597 19.8519 19.6097 19.6019C19.8596 19.352 20 19.013 20 18.6596V5.33269C19.9979 5.15854 19.9617 4.98649 19.8934 4.82627Z" fill="url(#paint0_linear_11925_4911)"/>
</g>
<defs>
<filter id="filter0_d_11925_4911" x="0" y="0" width="24" height="24" filterUnits="userSpaceOnUse" color-interpolation-filters="sRGB">
<feFlood flood-opacity="0" result="BackgroundImageFix"/>
<feColorMatrix in="SourceAlpha" type="matrix" values="0 0 0 0 0 0 0 0 0 0 0 0 0 0 0 0 0 0 127 0" result="hardAlpha"/>
<feOffset/>
<feGaussianBlur stdDeviation="2"/>
<feComposite in2="hardAlpha" operator="out"/>
<feColorMatrix type="matrix" values="0 0 0 0 0.340978 0 0 0 0 0.10943 0 0 0 0 1 0 0 0 0.2 0"/>
<feBlend mode="normal" in2="BackgroundImageFix" result="effect1_dropShadow_11925_4911"/>
<feBlend mode="normal" in="SourceGraphic" in2="effect1_dropShadow_11925_4911" result="shape"/>
</filter>
<linearGradient id="paint0_linear_11925_4911" x1="6.19342" y1="22.3059" x2="20" y2="4.69952" gradientUnits="userSpaceOnUse">
<stop offset="0.508671" stop-color="#2F2BE6"/>
<stop offset="1" stop-color="#49E3DA"/>
</linearGradient>
</defs>
</svg>
