<svg width="25" height="25" viewBox="0 0 25 25" fill="none" xmlns="http://www.w3.org/2000/svg">
<path fill-rule="evenodd" clip-rule="evenodd" d="M12.479 2.16602H12.5499C14.3891 2.16601 15.8172 2.16601 16.9574 2.26935C18.1147 2.37424 19.044 2.58996 19.8645 3.06365C20.883 3.65169 21.7288 4.49749 22.3168 5.51602C22.7905 6.33646 23.0062 7.26582 23.1111 8.42302C23.2145 9.5633 23.2145 10.9914 23.2145 12.8306V12.9014C23.2145 14.7407 23.2145 16.1687 23.1111 17.309C23.0062 18.4662 22.7905 19.3956 22.3168 20.216C21.7288 21.2345 20.883 22.0803 19.8645 22.6684C19.044 23.1421 18.1147 23.3578 16.9574 23.4627C15.8172 23.566 14.3891 23.566 12.5498 23.566H12.4791C10.6398 23.566 9.21174 23.566 8.07146 23.4627C6.91425 23.3578 5.9849 23.1421 5.16445 22.6684C4.14592 22.0803 3.30013 21.2345 2.71208 20.216C2.2384 19.3956 2.02267 18.4662 1.91779 17.309C1.81445 16.1687 1.81445 14.7407 1.81445 12.9015V12.8306C1.81445 10.9913 1.81445 9.56329 1.91779 8.42302C2.02267 7.26582 2.2384 6.33646 2.71208 5.51602C3.30013 4.49749 4.14592 3.65169 5.16445 3.06365C5.9849 2.58996 6.91425 2.37424 8.07146 2.26935C9.21172 2.16601 10.6398 2.16601 12.479 2.16602ZM8.19783 3.66364C7.13772 3.75972 6.43631 3.94592 5.86445 4.27608C5.05875 4.74125 4.38969 5.41031 3.92452 6.21601C3.59436 6.78787 3.40816 7.48929 3.31208 8.54939C3.21512 9.61912 3.21445 10.9839 3.21445 12.866C3.21445 14.7481 3.21512 16.1129 3.31208 17.1826C3.40816 18.2427 3.59436 18.9442 3.92452 19.516C4.38969 20.3217 5.05875 20.9908 5.86445 21.456C6.43631 21.7861 7.13772 21.9723 8.19783 22.0684C9.26755 22.1653 10.6323 22.166 12.5145 22.166C14.3966 22.166 15.7614 22.1653 16.8311 22.0684C17.8912 21.9723 18.5926 21.7861 19.1645 21.456C19.9702 20.9908 20.6392 20.3217 21.1044 19.516C21.4345 18.9442 21.6208 18.2427 21.7168 17.1826C21.8138 16.1129 21.8145 14.7481 21.8145 12.866C21.8145 10.9839 21.8138 9.61912 21.7168 8.54939C21.6208 7.48929 21.4345 6.78787 21.1044 6.21601C20.6392 5.41031 19.9702 4.74125 19.1645 4.27608C18.5926 3.94592 17.8912 3.75972 16.8311 3.66364C15.7614 3.56669 14.3966 3.56602 12.5145 3.56602C10.6323 3.56602 9.26755 3.56669 8.19783 3.66364Z" fill="#7A7A7A" stroke="#7A7A7A"/>
<path d="M17.1602 8.24219C17.3164 8.24219 17.4518 8.29948 17.5664 8.41406C17.6914 8.52865 17.7539 8.66927 17.7539 8.83594V16.7266C17.7539 16.8828 17.6966 17.0182 17.582 17.1328C17.4674 17.2474 17.3268 17.3047 17.1602 17.3047C17.0039 17.3047 16.8685 17.2474 16.7539 17.1328C16.6393 17.0182 16.582 16.8828 16.582 16.7266V8.83594C16.582 8.67969 16.6393 8.54427 16.7539 8.42969C16.8685 8.30469 17.0039 8.24219 17.1602 8.24219Z" fill="#7A7A7A"/>
<path d="M14.9727 16.4766C15.0143 16.5807 15.0352 16.6901 15.0352 16.8047C15.0352 16.9089 14.9831 17.0182 14.8789 17.1328C14.7852 17.2474 14.6237 17.3047 14.3945 17.3047C14.1758 17.3047 14.0143 17.1849 13.9102 16.9453L13.082 14.9609H8.72266L7.91016 16.9453C7.80599 17.1849 7.63932 17.3047 7.41016 17.3047C7.19141 17.3047 7.02995 17.2474 6.92578 17.1328C6.83203 17.0182 6.78516 16.9089 6.78516 16.8047C6.78516 16.6901 6.80599 16.5807 6.84766 16.4766L10.0977 8.77344C10.2435 8.41927 10.4935 8.24219 10.8477 8.24219H10.9727C11.3164 8.24219 11.5664 8.41927 11.7227 8.77344L14.9727 16.4766ZM12.6445 13.8984L10.9102 9.72656L9.17578 13.8984H12.6445Z" fill="#7A7A7A"/>
<path fill-rule="evenodd" clip-rule="evenodd" d="M17.9123 8.05289C17.709 7.85322 17.4507 7.74219 17.1602 7.74219C16.8547 7.74219 16.5921 7.87018 16.3927 8.08386C16.193 8.28716 16.082 8.54538 16.082 8.83594V16.7266C16.082 17.0208 16.1959 17.2819 16.4004 17.4864C16.6048 17.6908 16.8659 17.8047 17.1602 17.8047C17.4552 17.8047 17.7243 17.6977 17.9356 17.4864C18.1401 17.2819 18.2539 17.0208 18.2539 16.7266V8.83594C18.2539 8.53003 18.1334 8.25939 17.9123 8.05289ZM16.7539 8.42969C16.6393 8.54427 16.582 8.67969 16.582 8.83594V16.7266C16.582 16.8828 16.6393 17.0182 16.7539 17.1328C16.8685 17.2474 17.0039 17.3047 17.1602 17.3047C17.3268 17.3047 17.4674 17.2474 17.582 17.1328C17.6966 17.0182 17.7539 16.8828 17.7539 16.7266V8.83594C17.7539 8.66927 17.6914 8.52865 17.5664 8.41406C17.4518 8.29948 17.3164 8.24219 17.1602 8.24219C17.0039 8.24219 16.8685 8.30469 16.7539 8.42969Z" fill="#7A7A7A"/>
<path fill-rule="evenodd" clip-rule="evenodd" d="M15.4369 16.2909C15.5027 16.4554 15.5352 16.6279 15.5352 16.8047C15.5352 17.077 15.4018 17.2984 15.2567 17.4604C15.0259 17.7337 14.687 17.8047 14.3945 17.8047C14.1878 17.8047 13.986 17.7459 13.8115 17.6164C13.6424 17.491 13.5284 17.3213 13.4516 17.1447L13.4487 17.1379L12.7489 15.4609H9.05822L8.3688 17.1447C8.29044 17.325 8.1728 17.4958 7.99885 17.6209C7.82068 17.7489 7.6167 17.8047 7.41016 17.8047C7.11022 17.8047 6.78857 17.7252 6.55581 17.4691L6.54705 17.4595L6.5388 17.4494C6.40216 17.2824 6.28516 17.0643 6.28516 16.8047C6.28516 16.6279 6.31762 16.4554 6.38342 16.2909L6.3869 16.2822L9.63532 8.58306C9.63561 8.58235 9.6359 8.58164 9.6362 8.58093C9.73616 8.33903 9.88674 8.12196 10.1055 7.96699C10.3277 7.80962 10.5837 7.74219 10.8477 7.74219H10.9727C11.2349 7.74219 11.4873 7.81141 11.707 7.96699C11.9228 8.11987 12.075 8.33337 12.1801 8.57162L12.1834 8.57905L15.4369 16.2909ZM10.0977 8.77344L6.84766 16.4766C6.80599 16.5807 6.78516 16.6901 6.78516 16.8047C6.78516 16.9089 6.83203 17.0182 6.92578 17.1328C7.02995 17.2474 7.19141 17.3047 7.41016 17.3047C7.63932 17.3047 7.80599 17.1849 7.91016 16.9453L8.72266 14.9609H13.082L13.9102 16.9453C14.0143 17.1849 14.1758 17.3047 14.3945 17.3047C14.6237 17.3047 14.7852 17.2474 14.8789 17.1328C14.9831 17.0182 15.0352 16.9089 15.0352 16.8047C15.0352 16.6901 15.0143 16.5807 14.9727 16.4766L11.7227 8.77344C11.5664 8.41927 11.3164 8.24219 10.9727 8.24219H10.8477C10.4935 8.24219 10.2435 8.41927 10.0977 8.77344ZM10.9102 9.72656L9.17578 13.8984H12.6445L10.9102 9.72656ZM10.9102 11.0291L9.92513 13.3984H11.8952L10.9102 11.0291Z" fill="#7A7A7A"/>
</svg>
