<svg width="23" height="23" viewBox="0 0 23 23" fill="none" xmlns="http://www.w3.org/2000/svg">
<path d="M11.7819 12.9053C11.9632 12.9053 12.1404 12.8515 12.2912 12.7508C12.4419 12.6501 12.5594 12.5069 12.6288 12.3394C12.6982 12.1719 12.7163 11.9876 12.681 11.8098C12.6456 11.632 12.5583 11.4686 12.4301 11.3404C12.3019 11.2122 12.1385 11.1249 11.9607 11.0896C11.7829 11.0542 11.5986 11.0723 11.4311 11.1417C11.2636 11.2111 11.1204 11.3286 11.0197 11.4793C10.919 11.6301 10.8652 11.8073 10.8652 11.9886C10.8652 12.2317 10.9618 12.4649 11.1337 12.6368C11.3056 12.8087 11.5388 12.9053 11.7819 12.9053ZM16.3652 12.9053C16.5465 12.9053 16.7238 12.8515 16.8745 12.7508C17.0253 12.6501 17.1427 12.5069 17.2121 12.3394C17.2815 12.1719 17.2997 11.9876 17.2643 11.8098C17.2289 11.632 17.1416 11.4686 17.0134 11.3404C16.8852 11.2122 16.7219 11.1249 16.5441 11.0896C16.3663 11.0542 16.1819 11.0723 16.0144 11.1417C15.8469 11.2111 15.7038 11.3286 15.6031 11.4793C15.5023 11.6301 15.4486 11.8073 15.4486 11.9886C15.4486 12.2317 15.5451 12.4649 15.7171 12.6368C15.889 12.8087 16.1221 12.9053 16.3652 12.9053ZM11.7819 16.5719C11.9632 16.5719 12.1404 16.5182 12.2912 16.4175C12.4419 16.3167 12.5594 16.1736 12.6288 16.0061C12.6982 15.8386 12.7163 15.6543 12.681 15.4764C12.6456 15.2986 12.5583 15.1353 12.4301 15.0071C12.3019 14.8789 12.1385 14.7916 11.9607 14.7562C11.7829 14.7208 11.5986 14.739 11.4311 14.8084C11.2636 14.8778 11.1204 14.9953 11.0197 15.146C10.919 15.2967 10.8652 15.474 10.8652 15.6553C10.8652 15.8984 10.9618 16.1315 11.1337 16.3035C11.3056 16.4754 11.5388 16.5719 11.7819 16.5719ZM16.3652 16.5719C16.5465 16.5719 16.7238 16.5182 16.8745 16.4175C17.0253 16.3167 17.1427 16.1736 17.2121 16.0061C17.2815 15.8386 17.2997 15.6543 17.2643 15.4764C17.2289 15.2986 17.1416 15.1353 17.0134 15.0071C16.8852 14.8789 16.7219 14.7916 16.5441 14.7562C16.3663 14.7208 16.1819 14.739 16.0144 14.8084C15.8469 14.8778 15.7038 14.9953 15.6031 15.146C15.5023 15.2967 15.4486 15.474 15.4486 15.6553C15.4486 15.8984 15.5451 16.1315 15.7171 16.3035C15.889 16.4754 16.1221 16.5719 16.3652 16.5719ZM7.19857 12.9053C7.37987 12.9053 7.5571 12.8515 7.70784 12.7508C7.85859 12.6501 7.97608 12.5069 8.04546 12.3394C8.11484 12.1719 8.13299 11.9876 8.09762 11.8098C8.06225 11.632 7.97495 11.4686 7.84675 11.3404C7.71855 11.2122 7.55522 11.1249 7.3774 11.0896C7.19958 11.0542 7.01527 11.0723 6.84777 11.1417C6.68028 11.2111 6.53711 11.3286 6.43639 11.4793C6.33566 11.6301 6.2819 11.8073 6.2819 11.9886C6.2819 12.2317 6.37848 12.4649 6.55039 12.6368C6.72229 12.8087 6.95545 12.9053 7.19857 12.9053ZM18.1986 3.73861H17.2819V2.82194C17.2819 2.57882 17.1853 2.34567 17.0134 2.17376C16.8415 2.00185 16.6083 1.90527 16.3652 1.90527C16.1221 1.90527 15.889 2.00185 15.7171 2.17376C15.5451 2.34567 15.4486 2.57882 15.4486 2.82194V3.73861H8.11523V2.82194C8.11523 2.57882 8.01866 2.34567 7.84675 2.17376C7.67484 2.00185 7.44168 1.90527 7.19857 1.90527C6.95545 1.90527 6.72229 2.00185 6.55039 2.17376C6.37848 2.34567 6.2819 2.57882 6.2819 2.82194V3.73861H5.36523C4.63589 3.73861 3.93642 4.02834 3.42069 4.54406C2.90497 5.05979 2.61523 5.75926 2.61523 6.48861V17.4886C2.61523 18.218 2.90497 18.9174 3.42069 19.4331C3.93642 19.9489 4.63589 20.2386 5.36523 20.2386H18.1986C18.9279 20.2386 19.6274 19.9489 20.1431 19.4331C20.6588 18.9174 20.9486 18.218 20.9486 17.4886V6.48861C20.9486 5.75926 20.6588 5.05979 20.1431 4.54406C19.6274 4.02834 18.9279 3.73861 18.1986 3.73861ZM19.1152 17.4886C19.1152 17.7317 19.0187 17.9649 18.8467 18.1368C18.6748 18.3087 18.4417 18.4053 18.1986 18.4053H5.36523C5.12212 18.4053 4.88896 18.3087 4.71705 18.1368C4.54514 17.9649 4.44857 17.7317 4.44857 17.4886V9.23861H19.1152V17.4886ZM19.1152 7.40527H4.44857V6.48861C4.44857 6.24549 4.54514 6.01233 4.71705 5.84043C4.88896 5.66852 5.12212 5.57194 5.36523 5.57194H18.1986C18.4417 5.57194 18.6748 5.66852 18.8467 5.84043C19.0187 6.01233 19.1152 6.24549 19.1152 6.48861V7.40527ZM7.19857 16.5719C7.37987 16.5719 7.5571 16.5182 7.70784 16.4175C7.85859 16.3167 7.97608 16.1736 8.04546 16.0061C8.11484 15.8386 8.13299 15.6543 8.09762 15.4764C8.06225 15.2986 7.97495 15.1353 7.84675 15.0071C7.71855 14.8789 7.55522 14.7916 7.3774 14.7562C7.19958 14.7208 7.01527 14.739 6.84777 14.8084C6.68028 14.8778 6.53711 14.9953 6.43639 15.146C6.33566 15.2967 6.2819 15.474 6.2819 15.6553C6.2819 15.8984 6.37848 16.1315 6.55039 16.3035C6.72229 16.4754 6.95545 16.5719 7.19857 16.5719Z" fill="#2B33E6"/>
</svg>
