<svg width="25" height="25" viewBox="0 0 25 25" fill="none" xmlns="http://www.w3.org/2000/svg">
<g style="mix-blend-mode:darken">
<path fill-rule="evenodd" clip-rule="evenodd" d="M3.33008 14.7851C3.33008 12.645 3.33008 11.5749 3.73679 10.6291C3.79623 10.4909 3.86187 10.3555 3.93351 10.2232C4.42381 9.31791 5.26369 8.65484 6.94346 7.32871C9.61379 5.22055 10.949 4.16647 12.4962 4.06292C12.7185 4.04804 12.9416 4.04804 13.164 4.06292C14.7112 4.16647 16.0464 5.22055 18.7167 7.32871C20.3965 8.65484 21.2363 9.31791 21.7266 10.2232C21.7983 10.3555 21.8639 10.4909 21.9234 10.6291C22.3301 11.5749 22.3301 12.645 22.3301 14.7851V16.1814C22.3301 19.0098 22.3301 20.424 21.4514 21.3027C20.5937 22.1604 19.2257 22.1809 16.5301 22.1814L16.3301 22.1814H9.33008L9.13008 22.1814C6.43449 22.1809 5.06648 22.1604 4.20876 21.3027C3.33008 20.424 3.33008 19.0098 3.33008 16.1814V14.7851ZM11.2822 17.2041C10.6183 17.2041 10.0801 17.7423 10.0801 18.4062C10.0801 19.0702 10.6183 19.6084 11.2822 19.6084H14.3779C15.0419 19.6084 15.5801 19.0702 15.5801 18.4062C15.5801 17.7423 15.0419 17.2041 14.3779 17.2041H11.2822Z" fill="url(#paint0_linear_2789_37804)"/>
</g>
<defs>
<linearGradient id="paint0_linear_2789_37804" x1="12.8222" y1="22.1715" x2="12.6706" y2="4.43417" gradientUnits="userSpaceOnUse">
<stop stop-color="#4850FF"/>
<stop offset="1" stop-color="#050C9E"/>
</linearGradient>
</defs>
</svg>
