<svg width="25" height="25" viewBox="0 0 25 25" fill="none" xmlns="http://www.w3.org/2000/svg">
<path fill-rule="evenodd" clip-rule="evenodd" d="M13.1171 5.44573C12.9259 5.43293 12.734 5.43293 12.5428 5.44573C11.9279 5.48688 11.3207 5.71478 10.5128 6.22148C9.69138 6.73662 8.72427 7.49891 7.37705 8.5625C5.64986 9.92608 4.95443 10.4921 4.54887 11.2409C4.48726 11.3547 4.43081 11.4712 4.37969 11.59C4.04327 12.3723 4.02992 13.2689 4.02992 15.4695V16.8658C4.02992 18.2998 4.03141 19.3048 4.13351 20.0643C4.23291 20.8036 4.41597 21.2045 4.70357 21.4921C4.99118 21.7797 5.39206 21.9628 6.13138 22.0622C6.89083 22.1643 7.89592 22.1658 9.32992 22.1658H16.3299C17.7639 22.1658 18.769 22.1643 19.5285 22.0622C20.2678 21.9628 20.6687 21.7797 20.9563 21.4921C21.2439 21.2045 21.4269 20.8036 21.5263 20.0643C21.6284 19.3048 21.6299 18.2998 21.6299 16.8658V15.4695C21.6299 13.2689 21.6166 12.3723 21.2801 11.59C21.229 11.4712 21.1726 11.3547 21.111 11.2409C20.7054 10.4921 20.01 9.92608 18.2828 8.5625C16.9356 7.49891 15.9685 6.73662 15.1471 6.22148C14.3392 5.71478 13.7319 5.48688 13.1171 5.44573ZM12.4493 4.04886C12.7028 4.03189 12.9571 4.03189 13.2106 4.04886C14.143 4.11126 14.9769 4.46218 15.8909 5.03544C16.7841 5.59562 17.8101 6.40565 19.1177 7.43794L19.1503 7.46367C19.194 7.49819 19.2373 7.53234 19.2801 7.56612C20.8351 8.7933 21.7824 9.5409 22.342 10.5742C22.4237 10.725 22.4985 10.8794 22.5663 11.0369C23.0305 12.1165 23.0303 13.3232 23.0299 15.3041C23.0299 15.3587 23.0299 15.4138 23.0299 15.4695V16.9173C23.0299 18.2877 23.03 19.3872 22.9138 20.2508C22.7936 21.1454 22.5373 21.891 21.9462 22.482C21.3551 23.0731 20.6096 23.3294 19.715 23.4497C18.8514 23.5658 17.7519 23.5658 16.3815 23.5658H9.27835C7.90795 23.5658 6.80845 23.5658 5.94483 23.4497C5.05027 23.3294 4.3047 23.0731 3.71363 22.482C3.12255 21.891 2.86627 21.1454 2.746 20.2508C2.62989 19.3872 2.6299 18.2877 2.62992 16.9173L2.62992 15.4695C2.62992 15.4138 2.62991 15.3586 2.6299 15.3041C2.62956 13.3232 2.62935 12.1165 3.09357 11.0369C3.16133 10.8794 3.23616 10.725 3.31784 10.5742C3.87747 9.5409 4.82477 8.7933 6.37975 7.56612C6.42255 7.53234 6.46582 7.49819 6.50955 7.46367L6.54214 7.43794C7.84969 6.40565 8.87572 5.59562 9.76891 5.03544C10.683 4.46218 11.5169 4.11126 12.4493 4.04886Z" fill="#7A7A7A" stroke="#7A7A7A"/>
<line x1="11.2791" y1="19.0646" x2="14.3791" y2="19.0646" stroke="#7A7A7A" stroke-width="2.4" stroke-linecap="round"/>
</svg>
