<svg width="19" height="19" viewBox="0 0 19 19" fill="none" xmlns="http://www.w3.org/2000/svg">
<path d="M14.623 1.83301H4.12305C3.52631 1.83301 2.95401 2.07006 2.53206 2.49202C2.1101 2.91397 1.87305 3.48627 1.87305 4.08301V4.96051C1.87294 5.27022 1.93677 5.57661 2.06055 5.86051V5.90551C2.16651 6.14624 2.31659 6.365 2.50305 6.55051L7.12305 11.1405V16.083C7.12279 16.2105 7.15502 16.3359 7.2167 16.4474C7.27838 16.559 7.36746 16.653 7.47555 16.7205C7.5949 16.7945 7.73263 16.8335 7.87305 16.833C7.99045 16.8323 8.10605 16.804 8.21055 16.7505L11.2105 15.2505C11.3342 15.1882 11.4382 15.0928 11.5111 14.975C11.5839 14.8572 11.6226 14.7215 11.623 14.583V11.1405L16.213 6.55051C16.3995 6.365 16.5496 6.14624 16.6555 5.90551V5.86051C16.7897 5.57883 16.8637 5.27234 16.873 4.96051V4.08301C16.873 3.48627 16.636 2.91397 16.214 2.49202C15.7921 2.07006 15.2198 1.83301 14.623 1.83301ZM10.3405 10.3005C10.271 10.3706 10.216 10.4537 10.1787 10.5451C10.1414 10.6365 10.1225 10.7343 10.123 10.833V14.118L8.62305 14.868V10.833C8.62362 10.7343 8.6047 10.6365 8.56738 10.5451C8.53005 10.4537 8.47506 10.3706 8.40555 10.3005L4.43055 6.33301H14.3155L10.3405 10.3005ZM15.373 4.83301H3.37305V4.08301C3.37305 3.8841 3.45206 3.69333 3.59272 3.55268C3.73337 3.41203 3.92413 3.33301 4.12305 3.33301H14.623C14.822 3.33301 15.0127 3.41203 15.1534 3.55268C15.294 3.69333 15.373 3.8841 15.373 4.08301V4.83301Z" fill="#2B33E6"/>
</svg>
