<svg width="25" height="25" viewBox="0 0 25 25" fill="none" xmlns="http://www.w3.org/2000/svg">
<path d="M14.8301 6.18164C14.8301 5.71727 14.8301 5.48508 14.8521 5.28976C15.0349 3.6671 16.3155 2.38648 17.9382 2.20365C18.1335 2.18164 18.3657 2.18164 18.8301 2.18164C19.2944 2.18164 19.5266 2.18164 19.722 2.20365C21.3446 2.38648 22.6252 3.6671 22.8081 5.28976C22.8301 5.48508 22.8301 5.71727 22.8301 6.18164C22.8301 6.64601 22.8301 6.8782 22.8081 7.07352C22.6252 8.69619 21.3446 9.9768 19.722 10.1596C19.5266 10.1816 19.2944 10.1816 18.8301 10.1816C18.3657 10.1816 18.1335 10.1816 17.9382 10.1596C16.3155 9.9768 15.0349 8.69619 14.8521 7.07352C14.8301 6.8782 14.8301 6.64601 14.8301 6.18164Z" fill="#2B33E6"/>
<path d="M14.8301 6.18164C14.8301 5.71727 14.8301 5.48508 14.8521 5.28976C15.0349 3.6671 16.3155 2.38648 17.9382 2.20365C18.1335 2.18164 18.3657 2.18164 18.8301 2.18164C19.2944 2.18164 19.5266 2.18164 19.722 2.20365C21.3446 2.38648 22.6252 3.6671 22.8081 5.28976C22.8301 5.48508 22.8301 5.71727 22.8301 6.18164C22.8301 6.64601 22.8301 6.8782 22.8081 7.07352C22.6252 8.69619 21.3446 9.9768 19.722 10.1596C19.5266 10.1816 19.2944 10.1816 18.8301 10.1816C18.3657 10.1816 18.1335 10.1816 17.9382 10.1596C16.3155 9.9768 15.0349 8.69619 14.8521 7.07352C14.8301 6.8782 14.8301 6.64601 14.8301 6.18164Z" fill="url(#paint0_linear_2789_37810)"/>
<path d="M14.8301 6.18164C14.8301 5.71727 14.8301 5.48508 14.8521 5.28976C15.0349 3.6671 16.3155 2.38648 17.9382 2.20365C18.1335 2.18164 18.3657 2.18164 18.8301 2.18164C19.2944 2.18164 19.5266 2.18164 19.722 2.20365C21.3446 2.38648 22.6252 3.6671 22.8081 5.28976C22.8301 5.48508 22.8301 5.71727 22.8301 6.18164C22.8301 6.64601 22.8301 6.8782 22.8081 7.07352C22.6252 8.69619 21.3446 9.9768 19.722 10.1596C19.5266 10.1816 19.2944 10.1816 18.8301 10.1816C18.3657 10.1816 18.1335 10.1816 17.9382 10.1596C16.3155 9.9768 15.0349 8.69619 14.8521 7.07352C14.8301 6.8782 14.8301 6.64601 14.8301 6.18164Z" stroke="url(#paint1_linear_2789_37810)"/>
<path d="M14.8301 17.1816C14.8301 16.7173 14.8301 16.4851 14.8521 16.2898C15.0349 14.6671 16.3155 13.3865 17.9382 13.2036C18.1335 13.1816 18.3657 13.1816 18.8301 13.1816C19.2944 13.1816 19.5266 13.1816 19.722 13.2036C21.3446 13.3865 22.6252 14.6671 22.8081 16.2898C22.8301 16.4851 22.8301 16.7173 22.8301 17.1816C22.8301 17.646 22.8301 17.8782 22.8081 18.0735C22.6252 19.6962 21.3446 20.9768 19.722 21.1596C19.5266 21.1816 19.2944 21.1816 18.8301 21.1816C18.3657 21.1816 18.1335 21.1816 17.9382 21.1596C16.3155 20.9768 15.0349 19.6962 14.8521 18.0735C14.8301 17.8782 14.8301 17.646 14.8301 17.1816Z" fill="#2B33E6"/>
<path d="M14.8301 17.1816C14.8301 16.7173 14.8301 16.4851 14.8521 16.2898C15.0349 14.6671 16.3155 13.3865 17.9382 13.2036C18.1335 13.1816 18.3657 13.1816 18.8301 13.1816C19.2944 13.1816 19.5266 13.1816 19.722 13.2036C21.3446 13.3865 22.6252 14.6671 22.8081 16.2898C22.8301 16.4851 22.8301 16.7173 22.8301 17.1816C22.8301 17.646 22.8301 17.8782 22.8081 18.0735C22.6252 19.6962 21.3446 20.9768 19.722 21.1596C19.5266 21.1816 19.2944 21.1816 18.8301 21.1816C18.3657 21.1816 18.1335 21.1816 17.9382 21.1596C16.3155 20.9768 15.0349 19.6962 14.8521 18.0735C14.8301 17.8782 14.8301 17.646 14.8301 17.1816Z" fill="url(#paint2_linear_2789_37810)"/>
<path d="M14.8301 17.1816C14.8301 16.7173 14.8301 16.4851 14.8521 16.2898C15.0349 14.6671 16.3155 13.3865 17.9382 13.2036C18.1335 13.1816 18.3657 13.1816 18.8301 13.1816C19.2944 13.1816 19.5266 13.1816 19.722 13.2036C21.3446 13.3865 22.6252 14.6671 22.8081 16.2898C22.8301 16.4851 22.8301 16.7173 22.8301 17.1816C22.8301 17.646 22.8301 17.8782 22.8081 18.0735C22.6252 19.6962 21.3446 20.9768 19.722 21.1596C19.5266 21.1816 19.2944 21.1816 18.8301 21.1816C18.3657 21.1816 18.1335 21.1816 17.9382 21.1596C16.3155 20.9768 15.0349 19.6962 14.8521 18.0735C14.8301 17.8782 14.8301 17.646 14.8301 17.1816Z" stroke="url(#paint3_linear_2789_37810)"/>
<path d="M2.83008 6.18164C2.83008 5.71727 2.83008 5.48508 2.85209 5.28976C3.03492 3.6671 4.31553 2.38648 5.9382 2.20365C6.13352 2.18164 6.36571 2.18164 6.83008 2.18164C7.29445 2.18164 7.52663 2.18164 7.72195 2.20365C9.34462 2.38648 10.6252 3.6671 10.8081 5.28976C10.8301 5.48508 10.8301 5.71727 10.8301 6.18164C10.8301 6.64601 10.8301 6.8782 10.8081 7.07352C10.6252 8.69619 9.34462 9.9768 7.72195 10.1596C7.52663 10.1816 7.29445 10.1816 6.83008 10.1816C6.36571 10.1816 6.13352 10.1816 5.9382 10.1596C4.31553 9.9768 3.03492 8.69619 2.85209 7.07352C2.83008 6.8782 2.83008 6.64601 2.83008 6.18164Z" fill="#2B33E6"/>
<path d="M2.83008 6.18164C2.83008 5.71727 2.83008 5.48508 2.85209 5.28976C3.03492 3.6671 4.31553 2.38648 5.9382 2.20365C6.13352 2.18164 6.36571 2.18164 6.83008 2.18164C7.29445 2.18164 7.52663 2.18164 7.72195 2.20365C9.34462 2.38648 10.6252 3.6671 10.8081 5.28976C10.8301 5.48508 10.8301 5.71727 10.8301 6.18164C10.8301 6.64601 10.8301 6.8782 10.8081 7.07352C10.6252 8.69619 9.34462 9.9768 7.72195 10.1596C7.52663 10.1816 7.29445 10.1816 6.83008 10.1816C6.36571 10.1816 6.13352 10.1816 5.9382 10.1596C4.31553 9.9768 3.03492 8.69619 2.85209 7.07352C2.83008 6.8782 2.83008 6.64601 2.83008 6.18164Z" fill="url(#paint4_linear_2789_37810)"/>
<path d="M2.83008 6.18164C2.83008 5.71727 2.83008 5.48508 2.85209 5.28976C3.03492 3.6671 4.31553 2.38648 5.9382 2.20365C6.13352 2.18164 6.36571 2.18164 6.83008 2.18164C7.29445 2.18164 7.52663 2.18164 7.72195 2.20365C9.34462 2.38648 10.6252 3.6671 10.8081 5.28976C10.8301 5.48508 10.8301 5.71727 10.8301 6.18164C10.8301 6.64601 10.8301 6.8782 10.8081 7.07352C10.6252 8.69619 9.34462 9.9768 7.72195 10.1596C7.52663 10.1816 7.29445 10.1816 6.83008 10.1816C6.36571 10.1816 6.13352 10.1816 5.9382 10.1596C4.31553 9.9768 3.03492 8.69619 2.85209 7.07352C2.83008 6.8782 2.83008 6.64601 2.83008 6.18164Z" stroke="url(#paint5_linear_2789_37810)"/>
<path d="M2.83008 17.1816C2.83008 16.7173 2.83008 16.4851 2.85209 16.2898C3.03492 14.6671 4.31553 13.3865 5.9382 13.2036C6.13352 13.1816 6.36571 13.1816 6.83008 13.1816C7.29445 13.1816 7.52663 13.1816 7.72195 13.2036C9.34462 13.3865 10.6252 14.6671 10.8081 16.2898C10.8301 16.4851 10.8301 16.7173 10.8301 17.1816C10.8301 17.646 10.8301 17.8782 10.8081 18.0735C10.6252 19.6962 9.34462 20.9768 7.72195 21.1596C7.52663 21.1816 7.29445 21.1816 6.83008 21.1816C6.36571 21.1816 6.13352 21.1816 5.9382 21.1596C4.31553 20.9768 3.03492 19.6962 2.85209 18.0735C2.83008 17.8782 2.83008 17.646 2.83008 17.1816Z" fill="#2B33E6"/>
<path d="M2.83008 17.1816C2.83008 16.7173 2.83008 16.4851 2.85209 16.2898C3.03492 14.6671 4.31553 13.3865 5.9382 13.2036C6.13352 13.1816 6.36571 13.1816 6.83008 13.1816C7.29445 13.1816 7.52663 13.1816 7.72195 13.2036C9.34462 13.3865 10.6252 14.6671 10.8081 16.2898C10.8301 16.4851 10.8301 16.7173 10.8301 17.1816C10.8301 17.646 10.8301 17.8782 10.8081 18.0735C10.6252 19.6962 9.34462 20.9768 7.72195 21.1596C7.52663 21.1816 7.29445 21.1816 6.83008 21.1816C6.36571 21.1816 6.13352 21.1816 5.9382 21.1596C4.31553 20.9768 3.03492 19.6962 2.85209 18.0735C2.83008 17.8782 2.83008 17.646 2.83008 17.1816Z" fill="url(#paint6_linear_2789_37810)"/>
<path d="M2.83008 17.1816C2.83008 16.7173 2.83008 16.4851 2.85209 16.2898C3.03492 14.6671 4.31553 13.3865 5.9382 13.2036C6.13352 13.1816 6.36571 13.1816 6.83008 13.1816C7.29445 13.1816 7.52663 13.1816 7.72195 13.2036C9.34462 13.3865 10.6252 14.6671 10.8081 16.2898C10.8301 16.4851 10.8301 16.7173 10.8301 17.1816C10.8301 17.646 10.8301 17.8782 10.8081 18.0735C10.6252 19.6962 9.34462 20.9768 7.72195 21.1596C7.52663 21.1816 7.29445 21.1816 6.83008 21.1816C6.36571 21.1816 6.13352 21.1816 5.9382 21.1596C4.31553 20.9768 3.03492 19.6962 2.85209 18.0735C2.83008 17.8782 2.83008 17.646 2.83008 17.1816Z" stroke="url(#paint7_linear_2789_37810)"/>
<defs>
<linearGradient id="paint0_linear_2789_37810" x1="18.8268" y1="10.1773" x2="18.7566" y2="2.35044" gradientUnits="userSpaceOnUse">
<stop stop-color="#4850FF"/>
<stop offset="1" stop-color="#050C9E"/>
</linearGradient>
<linearGradient id="paint1_linear_2789_37810" x1="18.8301" y1="2.18164" x2="18.8301" y2="10.1816" gradientUnits="userSpaceOnUse">
<stop stop-color="#050C9E"/>
<stop offset="1" stop-color="#4850FF"/>
</linearGradient>
<linearGradient id="paint2_linear_2789_37810" x1="18.8268" y1="21.1773" x2="18.7566" y2="13.3504" gradientUnits="userSpaceOnUse">
<stop stop-color="#4850FF"/>
<stop offset="1" stop-color="#050C9E"/>
</linearGradient>
<linearGradient id="paint3_linear_2789_37810" x1="18.8301" y1="13.1816" x2="18.8301" y2="21.1816" gradientUnits="userSpaceOnUse">
<stop stop-color="#050C9E"/>
<stop offset="1" stop-color="#4850FF"/>
</linearGradient>
<linearGradient id="paint4_linear_2789_37810" x1="6.82675" y1="10.1773" x2="6.75664" y2="2.35044" gradientUnits="userSpaceOnUse">
<stop stop-color="#4850FF"/>
<stop offset="1" stop-color="#050C9E"/>
</linearGradient>
<linearGradient id="paint5_linear_2789_37810" x1="6.83008" y1="2.18164" x2="6.83008" y2="10.1816" gradientUnits="userSpaceOnUse">
<stop stop-color="#050C9E"/>
<stop offset="1" stop-color="#4850FF"/>
</linearGradient>
<linearGradient id="paint6_linear_2789_37810" x1="6.82675" y1="21.1773" x2="6.75664" y2="13.3504" gradientUnits="userSpaceOnUse">
<stop stop-color="#4850FF"/>
<stop offset="1" stop-color="#050C9E"/>
</linearGradient>
<linearGradient id="paint7_linear_2789_37810" x1="6.83008" y1="13.1816" x2="6.83008" y2="21.1816" gradientUnits="userSpaceOnUse">
<stop stop-color="#050C9E"/>
<stop offset="1" stop-color="#4850FF"/>
</linearGradient>
</defs>
</svg>
