<svg width="25" height="25" viewBox="0 0 25 25" fill="none" xmlns="http://www.w3.org/2000/svg">
<path fill-rule="evenodd" clip-rule="evenodd" d="M18.7801 2.16602C18.7964 2.16602 18.813 2.16602 18.8299 2.16602C18.8467 2.16602 18.8633 2.16602 18.8797 2.16602C19.2964 2.16598 19.5651 2.16595 19.8001 2.19243C21.7473 2.41183 23.2841 3.94857 23.5035 5.89577C23.53 6.13076 23.5299 6.39951 23.5299 6.81617C23.5299 6.83255 23.5299 6.84917 23.5299 6.86602C23.5299 6.88287 23.5299 6.89949 23.5299 6.91588C23.5299 7.33253 23.53 7.60128 23.5035 7.83627C23.2841 9.78348 21.7473 11.3202 19.8001 11.5396C19.5652 11.5661 19.2964 11.5661 18.8797 11.566C18.8634 11.566 18.8467 11.566 18.8299 11.566C18.813 11.566 18.7964 11.566 18.78 11.566C18.3634 11.5661 18.0946 11.5661 17.8596 11.5396C15.9124 11.3202 14.3757 9.78348 14.1563 7.83627C14.1298 7.60128 14.1298 7.33252 14.1299 6.91585C14.1299 6.89947 14.1299 6.88286 14.1299 6.86602C14.1299 6.84918 14.1299 6.83257 14.1299 6.81619C14.1298 6.39952 14.1298 6.13076 14.1563 5.89577C14.3757 3.94857 15.9124 2.41183 17.8596 2.19243C18.0946 2.16595 18.3634 2.16598 18.7801 2.16602ZM18.8299 3.56602C18.3465 3.56602 18.1628 3.56713 18.0164 3.58363C16.7183 3.72989 15.6938 4.75439 15.5475 6.05252C15.531 6.19893 15.5299 6.3826 15.5299 6.86602C15.5299 7.34944 15.531 7.53311 15.5475 7.67952C15.6938 8.97766 16.7183 10.0022 18.0164 10.1484C18.1628 10.1649 18.3465 10.166 18.8299 10.166C19.3133 10.166 19.497 10.1649 19.6434 10.1484C20.9415 10.0022 21.966 8.97766 22.1123 7.67952C22.1288 7.53311 22.1299 7.34944 22.1299 6.86602C22.1299 6.3826 22.1288 6.19893 22.1123 6.05252C21.966 4.75439 20.9415 3.72989 19.6434 3.58363C19.497 3.56713 19.3133 3.56602 18.8299 3.56602Z" fill="#7A7A7A" stroke="#7A7A7A"/>
<path fill-rule="evenodd" clip-rule="evenodd" d="M18.7801 13.166C18.7964 13.166 18.813 13.166 18.8299 13.166C18.8467 13.166 18.8633 13.166 18.8797 13.166C19.2964 13.166 19.5651 13.166 19.8001 13.1924C21.7473 13.4118 23.2841 14.9486 23.5035 16.8958C23.53 17.1308 23.5299 17.3995 23.5299 17.8162C23.5299 17.8326 23.5299 17.8492 23.5299 17.866C23.5299 17.8829 23.5299 17.8995 23.5299 17.9159C23.5299 18.3325 23.53 18.6013 23.5035 18.8363C23.2841 20.7835 21.7473 22.3202 19.8001 22.5396C19.5652 22.5661 19.2964 22.5661 18.8797 22.566C18.8634 22.566 18.8467 22.566 18.8299 22.566C18.813 22.566 18.7964 22.566 18.78 22.566C18.3634 22.5661 18.0946 22.5661 17.8596 22.5396C15.9124 22.3202 14.3757 20.7835 14.1563 18.8363C14.1298 18.6013 14.1298 18.3325 14.1299 17.9159C14.1299 17.8995 14.1299 17.8829 14.1299 17.866C14.1299 17.8492 14.1299 17.8326 14.1299 17.8162C14.1298 17.3995 14.1298 17.1308 14.1563 16.8958C14.3757 14.9486 15.9124 13.4118 17.8596 13.1924C18.0946 13.166 18.3634 13.166 18.7801 13.166ZM18.8299 14.566C18.3465 14.566 18.1628 14.5671 18.0164 14.5836C16.7183 14.7299 15.6938 15.7544 15.5475 17.0525C15.531 17.1989 15.5299 17.3826 15.5299 17.866C15.5299 18.3494 15.531 18.5331 15.5475 18.6795C15.6938 19.9777 16.7183 21.0022 18.0164 21.1484C18.1628 21.1649 18.3465 21.166 18.8299 21.166C19.3133 21.166 19.497 21.1649 19.6434 21.1484C20.9415 21.0022 21.966 19.9777 22.1123 18.6795C22.1288 18.5331 22.1299 18.3494 22.1299 17.866C22.1299 17.3826 22.1288 17.1989 22.1123 17.0525C21.966 15.7544 20.9415 14.7299 19.6434 14.5836C19.497 14.5671 19.3133 14.566 18.8299 14.566Z" fill="#7A7A7A" stroke="#7A7A7A"/>
<path fill-rule="evenodd" clip-rule="evenodd" d="M6.78006 2.16602C6.79644 2.16602 6.81305 2.16602 6.82989 2.16602C6.84673 2.16602 6.86334 2.16602 6.87972 2.16602C7.29639 2.16598 7.56515 2.16595 7.80014 2.19243C9.74734 2.41183 11.2841 3.94857 11.5035 5.89577C11.53 6.13076 11.5299 6.39951 11.5299 6.81617C11.5299 6.83255 11.5299 6.84917 11.5299 6.86602C11.5299 6.88287 11.5299 6.89949 11.5299 6.91588C11.5299 7.33253 11.53 7.60128 11.5035 7.83627C11.2841 9.78348 9.74734 11.3202 7.80014 11.5396C7.56515 11.5661 7.2964 11.5661 6.87974 11.566C6.86336 11.566 6.84674 11.566 6.82989 11.566C6.81304 11.566 6.79642 11.566 6.78003 11.566C6.36338 11.5661 6.09463 11.5661 5.85964 11.5396C3.91243 11.3202 2.37569 9.78348 2.1563 7.83627C2.12982 7.60128 2.12985 7.33252 2.12989 6.91585C2.12989 6.89947 2.12989 6.88286 2.12989 6.86602C2.12989 6.84918 2.12989 6.83257 2.12989 6.81619C2.12985 6.39952 2.12982 6.13076 2.1563 5.89577C2.37569 3.94857 3.91243 2.41183 5.85964 2.19243C6.09463 2.16595 6.36339 2.16598 6.78006 2.16602ZM6.82989 3.56602C6.34647 3.56602 6.1628 3.56713 6.01639 3.58363C4.71825 3.72989 3.69376 4.75439 3.54749 6.05252C3.531 6.19893 3.52989 6.3826 3.52989 6.86602C3.52989 7.34944 3.531 7.53311 3.54749 7.67952C3.69376 8.97766 4.71825 10.0022 6.01639 10.1484C6.1628 10.1649 6.34647 10.166 6.82989 10.166C7.31331 10.166 7.49698 10.1649 7.64339 10.1484C8.94152 10.0022 9.96602 8.97766 10.1123 7.67952C10.1288 7.53311 10.1299 7.34944 10.1299 6.86602C10.1299 6.3826 10.1288 6.19893 10.1123 6.05252C9.96602 4.75439 8.94152 3.72989 7.64339 3.58363C7.49698 3.56713 7.31331 3.56602 6.82989 3.56602Z" fill="#7A7A7A" stroke="#7A7A7A"/>
<path fill-rule="evenodd" clip-rule="evenodd" d="M6.78006 13.166C6.79644 13.166 6.81305 13.166 6.82989 13.166C6.84673 13.166 6.86334 13.166 6.87972 13.166C7.29639 13.166 7.56515 13.166 7.80014 13.1924C9.74734 13.4118 11.2841 14.9486 11.5035 16.8958C11.53 17.1308 11.5299 17.3995 11.5299 17.8162C11.5299 17.8326 11.5299 17.8492 11.5299 17.866C11.5299 17.8829 11.5299 17.8995 11.5299 17.9159C11.5299 18.3325 11.53 18.6013 11.5035 18.8363C11.2841 20.7835 9.74734 22.3202 7.80014 22.5396C7.56515 22.5661 7.2964 22.5661 6.87974 22.566C6.86336 22.566 6.84674 22.566 6.82989 22.566C6.81304 22.566 6.79642 22.566 6.78003 22.566C6.36338 22.5661 6.09463 22.5661 5.85964 22.5396C3.91243 22.3202 2.37569 20.7835 2.1563 18.8363C2.12982 18.6013 2.12985 18.3325 2.12989 17.9159C2.12989 17.8995 2.12989 17.8829 2.12989 17.866C2.12989 17.8492 2.12989 17.8326 2.12989 17.8162C2.12985 17.3995 2.12982 17.1308 2.1563 16.8958C2.37569 14.9486 3.91243 13.4118 5.85964 13.1924C6.09463 13.166 6.36339 13.166 6.78006 13.166ZM6.82989 14.566C6.34647 14.566 6.1628 14.5671 6.01639 14.5836C4.71825 14.7299 3.69376 15.7544 3.54749 17.0525C3.531 17.1989 3.52989 17.3826 3.52989 17.866C3.52989 18.3494 3.531 18.5331 3.54749 18.6795C3.69376 19.9777 4.71825 21.0022 6.01639 21.1484C6.1628 21.1649 6.34647 21.166 6.82989 21.166C7.31331 21.166 7.49698 21.1649 7.64339 21.1484C8.94152 21.0022 9.96602 19.9777 10.1123 18.6795C10.1288 18.5331 10.1299 18.3494 10.1299 17.866C10.1299 17.3826 10.1288 17.1989 10.1123 17.0525C9.96602 15.7544 8.94152 14.7299 7.64339 14.5836C7.49698 14.5671 7.31331 14.566 6.82989 14.566Z" fill="#7A7A7A" stroke="#7A7A7A"/>
</svg>
