<svg width="23" height="23" viewBox="0 0 23 23" fill="none" xmlns="http://www.w3.org/2000/svg">
<path d="M11.8478 12.9053C11.6665 12.9053 11.4893 12.959 11.3385 13.0598C11.1878 13.1605 11.0703 13.3036 11.0009 13.4711C10.9315 13.6386 10.9134 13.823 10.9487 14.0008C10.9841 14.1786 11.0714 14.3419 11.1996 14.4701C11.3278 14.5983 11.4911 14.6856 11.6689 14.721C11.8468 14.7564 12.0311 14.7382 12.1986 14.6688C12.3661 14.5995 12.5092 14.482 12.61 14.3312C12.7107 14.1805 12.7644 14.0032 12.7644 13.8219C12.7644 13.5788 12.6679 13.3457 12.496 13.1738C12.3241 13.0019 12.0909 12.9053 11.8478 12.9053ZM11.8478 1.90527C10.644 1.90527 9.452 2.14238 8.33985 2.60304C7.22769 3.06371 6.21717 3.73892 5.36597 4.59013C3.64688 6.30921 2.68111 8.64079 2.68111 11.0719C2.6731 13.1886 3.406 15.2414 4.75278 16.8744L2.91944 18.7078C2.79225 18.8367 2.70609 19.0004 2.67183 19.1782C2.63757 19.356 2.65675 19.54 2.72694 19.7069C2.80308 19.8719 2.92651 20.0105 3.08155 20.1051C3.2366 20.1998 3.41628 20.2462 3.59778 20.2386H11.8478C14.2789 20.2386 16.6105 19.2728 18.3296 17.5538C20.0487 15.8347 21.0144 13.5031 21.0144 11.0719C21.0144 8.64079 20.0487 6.30921 18.3296 4.59013C16.6105 2.87104 14.2789 1.90527 11.8478 1.90527ZM11.8478 18.4053H5.80694L6.65944 17.5528C6.74606 17.4679 6.81496 17.3666 6.86217 17.2549C6.90938 17.1432 6.93394 17.0232 6.93444 16.9019C6.931 16.6602 6.83216 16.4295 6.65944 16.2603C5.45915 15.0613 4.71169 13.4833 4.54441 11.795C4.37713 10.1067 4.80039 8.4127 5.74207 7.0015C6.68375 5.59031 8.08559 4.54927 9.70875 4.05575C11.3319 3.56223 13.076 3.64676 14.6438 4.29494C16.2116 4.94313 17.5062 6.11486 18.307 7.61051C19.1078 9.10616 19.3652 10.8332 19.0355 12.4974C18.7057 14.1615 17.8091 15.6599 16.4985 16.7372C15.1879 17.8144 13.5443 18.4039 11.8478 18.4053ZM11.8478 7.40527C11.6047 7.40527 11.3715 7.50185 11.1996 7.67376C11.0277 7.84567 10.9311 8.07882 10.9311 8.32194V11.0719C10.9311 11.3151 11.0277 11.5482 11.1996 11.7201C11.3715 11.892 11.6047 11.9886 11.8478 11.9886C12.0909 11.9886 12.3241 11.892 12.496 11.7201C12.6679 11.5482 12.7644 11.3151 12.7644 11.0719V8.32194C12.7644 8.07882 12.6679 7.84567 12.496 7.67376C12.3241 7.50185 12.0909 7.40527 11.8478 7.40527Z" fill="#2B33E6"/>
</svg>
