<svg width="25" height="25" viewBox="0 0 25 25" fill="none" xmlns="http://www.w3.org/2000/svg">
<path fill-rule="evenodd" clip-rule="evenodd" d="M16.7502 16.2128C16.6643 16.2126 16.5145 16.2234 16.1192 16.2537C14.88 16.3488 13.4439 16.4297 12.1411 16.4297C10.8929 16.4297 9.50556 16.3554 8.2832 16.2657C7.87332 16.2356 7.71767 16.2249 7.62995 16.2255C6.45445 16.2345 5.5419 16.9941 5.31972 18.1485C5.30308 18.2349 5.28772 18.3691 5.24808 18.7305C5.20993 19.0785 5.1968 19.2048 5.1948 19.3017C5.16903 20.5485 6.11348 21.6022 7.35569 21.7125C7.45219 21.7211 7.57923 21.7218 7.92923 21.7218L16.4835 21.7218C16.8682 21.7218 17.0084 21.721 17.1119 21.7111C18.4102 21.5873 19.3648 20.4382 19.2485 19.1391C19.2392 19.0357 19.2143 18.8977 19.1438 18.5194C19.0798 18.1763 19.0555 18.0494 19.033 17.966C18.7426 16.8904 17.8643 16.2159 16.7502 16.2128ZM16.0583 14.8109C16.3887 14.7855 16.6023 14.7691 16.7541 14.7695C18.519 14.7743 19.9665 15.886 20.4264 17.5899C20.466 17.7365 20.5012 17.9257 20.5549 18.2136L20.5708 18.2988C20.6303 18.6173 20.6698 18.829 20.686 19.0104C20.8732 21.1001 19.3375 22.9487 17.2489 23.1479C17.0676 23.1652 16.8523 23.1651 16.5282 23.1651L7.92923 23.1651C7.91559 23.1651 7.90215 23.1651 7.8889 23.1651C7.59371 23.1651 7.39697 23.1652 7.22802 23.1502C5.22969 22.9727 3.71036 21.2776 3.7518 19.2719C3.75531 19.1023 3.77678 18.9067 3.80899 18.6133C3.81043 18.6001 3.8119 18.5868 3.81338 18.5732C3.81501 18.5584 3.8166 18.5439 3.81817 18.5295C3.85137 18.2266 3.87314 18.0279 3.90244 17.8757C4.2546 16.0459 5.75564 14.7966 7.6189 14.7823C7.77393 14.7811 7.99493 14.7973 8.3374 14.8225C8.35425 14.8237 8.37139 14.825 8.38883 14.8263C9.59493 14.9148 10.9431 14.9864 12.1411 14.9864C13.3915 14.9864 14.7867 14.9084 16.0089 14.8147L16.0583 14.8109Z" fill="#7A7A7A" stroke="#7A7A7A"/>
<path fill-rule="evenodd" clip-rule="evenodd" d="M7.51758 8.01137C7.51758 5.33536 9.68692 3.16602 12.3629 3.16602C15.039 3.16602 17.2083 5.33536 17.2083 8.01137V8.60048C17.2083 10.9511 15.3027 12.8567 12.952 12.8567H11.7738C9.42317 12.8567 7.51758 10.9511 7.51758 8.60047V8.01137ZM12.3629 4.60931C10.484 4.60931 8.96088 6.13247 8.96088 8.01137V8.60047C8.96088 10.154 10.2203 11.4134 11.7738 11.4134H12.952C14.5056 11.4134 15.765 10.154 15.765 8.60048V8.01137C15.765 6.13247 14.2418 4.60931 12.3629 4.60931Z" fill="#7A7A7A" stroke="#7A7A7A"/>
</svg>
