<svg width="25" height="25" viewBox="0 0 25 25" fill="none" xmlns="http://www.w3.org/2000/svg">
<path d="M16.1348 15.1234L16.1348 15.1234C16.4858 15.0964 16.6496 15.0847 16.7514 15.085C18.0654 15.0885 19.1185 15.8974 19.461 17.166C19.4876 17.2648 19.5149 17.407 19.5718 17.7123L19.5719 17.7124L19.5878 17.7977L19.5878 17.7977C19.6507 18.1349 19.679 18.2921 19.69 18.415L20.686 18.3258L19.69 18.415C19.8281 19.9569 18.695 21.3209 17.154 21.4678C17.0311 21.4795 16.8713 21.4806 16.5283 21.4805H16.5282L7.92923 21.4805L7.88881 21.4805C7.88879 21.4805 7.88878 21.4805 7.88876 21.4805C7.57654 21.4806 7.4311 21.4797 7.31648 21.4695L7.22802 22.4656L7.31648 21.4695C5.84203 21.3386 4.72101 20.0879 4.75159 18.608C4.75397 18.4929 4.76895 18.3482 4.80302 18.0378L3.80899 17.9287L4.80302 18.0378L4.80742 17.9976L4.80743 17.9976L4.81222 17.9539C4.84744 17.6324 4.86467 17.4827 4.88441 17.3801C5.14652 16.0183 6.23982 15.1083 7.62656 15.0977C7.73049 15.0969 7.90031 15.1085 8.26412 15.1352L8.31565 15.139L8.38882 14.1419L8.31565 15.139C9.533 15.2284 10.9083 15.3018 12.1411 15.3018C13.4278 15.3018 14.8513 15.2218 16.0853 15.1272L16.0854 15.1272L16.1348 15.1234Z" fill="#2B33E6"/>
<path d="M16.1348 15.1234L16.1348 15.1234C16.4858 15.0964 16.6496 15.0847 16.7514 15.085C18.0654 15.0885 19.1185 15.8974 19.461 17.166C19.4876 17.2648 19.5149 17.407 19.5718 17.7123L19.5719 17.7124L19.5878 17.7977L19.5878 17.7977C19.6507 18.1349 19.679 18.2921 19.69 18.415L20.686 18.3258L19.69 18.415C19.8281 19.9569 18.695 21.3209 17.154 21.4678C17.0311 21.4795 16.8713 21.4806 16.5283 21.4805H16.5282L7.92923 21.4805L7.88881 21.4805C7.88879 21.4805 7.88878 21.4805 7.88876 21.4805C7.57654 21.4806 7.4311 21.4797 7.31648 21.4695L7.22802 22.4656L7.31648 21.4695C5.84203 21.3386 4.72101 20.0879 4.75159 18.608C4.75397 18.4929 4.76895 18.3482 4.80302 18.0378L3.80899 17.9287L4.80302 18.0378L4.80742 17.9976L4.80743 17.9976L4.81222 17.9539C4.84744 17.6324 4.86467 17.4827 4.88441 17.3801C5.14652 16.0183 6.23982 15.1083 7.62656 15.0977C7.73049 15.0969 7.90031 15.1085 8.26412 15.1352L8.31565 15.139L8.38882 14.1419L8.31565 15.139C9.533 15.2284 10.9083 15.3018 12.1411 15.3018C13.4278 15.3018 14.8513 15.2218 16.0853 15.1272L16.0854 15.1272L16.1348 15.1234Z" fill="url(#paint0_linear_2789_37917)"/>
<path d="M16.1348 15.1234L16.1348 15.1234C16.4858 15.0964 16.6496 15.0847 16.7514 15.085C18.0654 15.0885 19.1185 15.8974 19.461 17.166C19.4876 17.2648 19.5149 17.407 19.5718 17.7123L19.5719 17.7124L19.5878 17.7977L19.5878 17.7977C19.6507 18.1349 19.679 18.2921 19.69 18.415L20.686 18.3258L19.69 18.415C19.8281 19.9569 18.695 21.3209 17.154 21.4678C17.0311 21.4795 16.8713 21.4806 16.5283 21.4805H16.5282L7.92923 21.4805L7.88881 21.4805C7.88879 21.4805 7.88878 21.4805 7.88876 21.4805C7.57654 21.4806 7.4311 21.4797 7.31648 21.4695L7.22802 22.4656L7.31648 21.4695C5.84203 21.3386 4.72101 20.0879 4.75159 18.608C4.75397 18.4929 4.76895 18.3482 4.80302 18.0378L3.80899 17.9287L4.80302 18.0378L4.80742 17.9976L4.80743 17.9976L4.81222 17.9539C4.84744 17.6324 4.86467 17.4827 4.88441 17.3801C5.14652 16.0183 6.23982 15.1083 7.62656 15.0977C7.73049 15.0969 7.90031 15.1085 8.26412 15.1352L8.31565 15.139L8.38882 14.1419L8.31565 15.139C9.533 15.2284 10.9083 15.3018 12.1411 15.3018C13.4278 15.3018 14.8513 15.2218 16.0853 15.1272L16.0854 15.1272L16.1348 15.1234Z" stroke="url(#paint1_linear_2789_37917)" stroke-width="2"/>
<path d="M8.51758 7.3268C8.51758 5.20307 10.2392 3.48145 12.3629 3.48145C14.4867 3.48145 16.2083 5.20307 16.2083 7.3268V7.91591C16.2083 9.71429 14.7504 11.1722 12.952 11.1722H11.7738C9.97545 11.1722 8.51758 9.71429 8.51758 7.9159V7.3268Z" fill="#2B33E6"/>
<path d="M8.51758 7.3268C8.51758 5.20307 10.2392 3.48145 12.3629 3.48145C14.4867 3.48145 16.2083 5.20307 16.2083 7.3268V7.91591C16.2083 9.71429 14.7504 11.1722 12.952 11.1722H11.7738C9.97545 11.1722 8.51758 9.71429 8.51758 7.9159V7.3268Z" fill="url(#paint2_linear_2789_37917)"/>
<path d="M8.51758 7.3268C8.51758 5.20307 10.2392 3.48145 12.3629 3.48145C14.4867 3.48145 16.2083 5.20307 16.2083 7.3268V7.91591C16.2083 9.71429 14.7504 11.1722 12.952 11.1722H11.7738C9.97545 11.1722 8.51758 9.71429 8.51758 7.9159V7.3268Z" stroke="url(#paint3_linear_2789_37917)" stroke-width="2"/>
<defs>
<linearGradient id="paint0_linear_2789_37917" x1="12.2192" y1="22.476" x2="12.1827" y2="14.2616" gradientUnits="userSpaceOnUse">
<stop stop-color="#4850FF"/>
<stop offset="1" stop-color="#050C9E"/>
</linearGradient>
<linearGradient id="paint1_linear_2789_37917" x1="12.2262" y1="14.085" x2="12.2262" y2="22.4805" gradientUnits="userSpaceOnUse">
<stop stop-color="#050C9E"/>
<stop offset="1" stop-color="#4850FF"/>
</linearGradient>
<linearGradient id="paint2_linear_2789_37917" x1="12.3589" y1="12.1669" x2="12.274" y2="2.68592" gradientUnits="userSpaceOnUse">
<stop stop-color="#4850FF"/>
<stop offset="1" stop-color="#050C9E"/>
</linearGradient>
<linearGradient id="paint3_linear_2789_37917" x1="12.3629" y1="2.48145" x2="12.3629" y2="12.1722" gradientUnits="userSpaceOnUse">
<stop stop-color="#050C9E"/>
<stop offset="1" stop-color="#4850FF"/>
</linearGradient>
</defs>
</svg>
