<svg width="84" height="84" viewBox="0 0 84 84" fill="none" xmlns="http://www.w3.org/2000/svg">
<g filter="url(#filter0_d_0_1)">
<circle cx="42.3643" cy="41.9844" r="31.5" fill="#2E2AEF"/>
</g>
<path d="M51.5313 39.6925H44.6563V32.8175C44.6563 32.2098 44.4148 31.6269 43.985 31.1971C43.5553 30.7673 42.9724 30.5259 42.3646 30.5259C41.7568 30.5259 41.1739 30.7673 40.7441 31.1971C40.3144 31.6269 40.0729 32.2098 40.0729 32.8175V39.6925H33.1979C32.5901 39.6925 32.0072 39.934 31.5775 40.3638C31.1477 40.7935 30.9062 41.3764 30.9062 41.9842C30.9062 42.592 31.1477 43.1749 31.5775 43.6047C32.0072 44.0344 32.5901 44.2759 33.1979 44.2759H40.0729V51.1509C40.0729 51.7587 40.3144 52.3416 40.7441 52.7713C41.1739 53.2011 41.7568 53.4425 42.3646 53.4425C42.9724 53.4425 43.5553 53.2011 43.985 52.7713C44.4148 52.3416 44.6563 51.7587 44.6563 51.1509V44.2759H51.5313C52.139 44.2759 52.7219 44.0344 53.1517 43.6047C53.5815 43.1749 53.8229 42.592 53.8229 41.9842C53.8229 41.3764 53.5815 40.7935 53.1517 40.3638C52.7219 39.934 52.139 39.6925 51.5313 39.6925Z" fill="white"/>
<defs>
<filter id="filter0_d_0_1" x="0.864258" y="0.484375" width="83" height="83" filterUnits="userSpaceOnUse" color-interpolation-filters="sRGB">
<feFlood flood-opacity="0" result="BackgroundImageFix"/>
<feColorMatrix in="SourceAlpha" type="matrix" values="0 0 0 0 0 0 0 0 0 0 0 0 0 0 0 0 0 0 127 0" result="hardAlpha"/>
<feOffset/>
<feGaussianBlur stdDeviation="5"/>
<feComposite in2="hardAlpha" operator="out"/>
<feColorMatrix type="matrix" values="0 0 0 0 0 0 0 0 0 0 0 0 0 0 0 0 0 0 0.25 0"/>
<feBlend mode="normal" in2="BackgroundImageFix" result="effect1_dropShadow_0_1"/>
<feBlend mode="normal" in="SourceGraphic" in2="effect1_dropShadow_0_1" result="shape"/>
</filter>
</defs>
</svg>
